<svg width="60" height="55" viewBox="0 0 60 55" fill="none" xmlns="http://www.w3.org/2000/svg">
<rect width="55" height="55" rx="27.5" fill="#232F3D"/>
<path d="M7.912 37.288C7.31467 37.288 6.824 37.1493 6.44 36.872C6.07733 36.5947 5.84267 36.2213 5.736 35.752C5.65067 35.2827 5.74667 34.76 6.024 34.184L14.216 16.232C14.5573 15.5067 14.9627 14.984 15.432 14.664C15.9013 14.3227 16.4453 14.152 17.064 14.152C17.6827 14.152 18.2267 14.3227 18.696 14.664C19.1653 14.984 19.56 15.5067 19.88 16.232L28.136 34.184C28.4133 34.76 28.5093 35.2933 28.424 35.784C28.36 36.2533 28.1467 36.6267 27.784 36.904C27.4213 37.16 26.952 37.288 26.376 37.288C25.6507 37.288 25.0853 37.1173 24.68 36.776C24.296 36.4347 23.9547 35.9013 23.656 35.176L21.736 30.728L23.72 32.104H10.376L12.36 30.728L10.472 35.176C10.152 35.9227 9.81067 36.4667 9.448 36.808C9.10667 37.128 8.59467 37.288 7.912 37.288ZM17 19.72L12.904 29.48L12.04 28.232H22.056L21.192 29.48L17.064 19.72H17ZM36.7065 37.288C35.8958 37.288 35.2772 37.064 34.8505 36.616C34.4238 36.168 34.2105 35.5387 34.2105 34.728V18.536H28.5465C27.8852 18.536 27.3732 18.3547 27.0105 17.992C26.6478 17.6293 26.4665 17.128 26.4665 16.488C26.4665 15.8267 26.6478 15.3253 27.0105 14.984C27.3732 14.6213 27.8852 14.44 28.5465 14.44H44.8345C45.4958 14.44 46.0078 14.6213 46.3705 14.984C46.7332 15.3253 46.9145 15.8267 46.9145 16.488C46.9145 17.128 46.7332 17.6293 46.3705 17.992C46.0078 18.3547 45.4958 18.536 44.8345 18.536H39.1705V34.728C39.1705 35.5387 38.9572 36.168 38.5305 36.616C38.1252 37.064 37.5172 37.288 36.7065 37.288Z" fill="#FF9B05"/>
</svg>